# Blender v2.90.0 OBJ File: 'avatar.blend'
# www.blender.org
mtllib leftLeg.mtl
o Cube.001_Cube.005
v 0.930000 1.930000 -0.500000
v 0.930000 2.000000 -0.430000
v 1.000000 1.930000 -0.430000
v 0.930000 1.979498 -0.479497
v 0.970415 1.970415 -0.470415
v 0.979497 1.979498 -0.430000
v 0.979497 1.930000 -0.479497
v 0.930000 0.000000 -0.430000
v 0.930000 0.070000 -0.500000
v 1.000000 0.070000 -0.430000
v 0.930000 0.020502 -0.479497
v 0.970415 0.029585 -0.470415
v 0.979497 0.070000 -0.479497
v 0.979497 0.020502 -0.430000
v 1.000000 1.930000 0.430000
v 0.930000 2.000000 0.430000
v 0.930000 1.930000 0.500000
v 0.979497 1.979498 0.430000
v 0.970415 1.970415 0.470415
v 0.930000 1.979498 0.479497
v 0.979497 1.930000 0.479497
v 1.000000 0.070000 0.430000
v 0.930000 0.070000 0.500000
v 0.930000 0.000000 0.430000
v 0.979497 0.070000 0.479497
v 0.970415 0.029585 0.470415
v 0.930000 0.020502 0.479497
v 0.979497 0.020502 0.430000
v 0.070000 1.930000 -0.500000
v 0.000000 1.930000 -0.430000
v 0.070000 2.000000 -0.430000
v 0.020502 1.930000 -0.479497
v 0.029585 1.970415 -0.470415
v 0.020502 1.979498 -0.430000
v 0.070000 1.979498 -0.479497
v 0.000000 0.070000 -0.430000
v 0.070000 0.070000 -0.500000
v 0.070000 0.000000 -0.430000
v 0.020502 0.070000 -0.479497
v 0.029585 0.029585 -0.470415
v 0.070000 0.020502 -0.479497
v 0.020502 0.020502 -0.430000
v 0.000000 1.930000 0.430000
v 0.070000 1.930000 0.500000
v 0.070000 2.000000 0.430000
v 0.020502 1.930000 0.479497
v 0.029585 1.970415 0.470415
v 0.070000 1.979498 0.479497
v 0.020502 1.979498 0.430000
v 0.070000 0.000000 0.430000
v 0.070000 0.070000 0.500000
v 0.000000 0.070000 0.430000
v 0.070000 0.020502 0.479497
v 0.029585 0.029585 0.470415
v 0.020502 0.070000 0.479497
v 0.020502 0.020502 0.430000
vt 0.547246 0.045684
vt 0.629592 0.045684
vt 0.629592 0.128030
vt 0.547246 0.128030
vt 0.864248 0.336031
vt 0.864248 0.157934
vt 0.946594 0.157934
vt 0.946594 0.336031
vt 0.629544 0.157392
vt 0.629544 0.335490
vt 0.547198 0.335490
vt 0.547198 0.157392
vt 0.629601 0.441847
vt 0.547255 0.441847
vt 0.547255 0.359501
vt 0.629601 0.359501
vt 0.734460 0.157513
vt 0.734460 0.335611
vt 0.652113 0.335611
vt 0.652113 0.157513
vt 0.840292 0.157934
vt 0.840292 0.151231
vt 0.844162 0.151231
vt 0.846995 0.157934
vt 0.636304 0.441847
vt 0.636304 0.445717
vt 0.629601 0.448550
vt 0.741162 0.335611
vt 0.741162 0.339481
vt 0.734460 0.342313
vt 0.629592 0.038981
vt 0.633461 0.038981
vt 0.636294 0.045684
vt 0.840292 0.336031
vt 0.846994 0.336031
vt 0.846994 0.339901
vt 0.840292 0.342734
vt 0.734460 0.150811
vt 0.738329 0.150811
vt 0.741162 0.157513
vt 0.652113 0.342313
vt 0.648244 0.342313
vt 0.645411 0.335611
vt 0.629601 0.352798
vt 0.633471 0.352798
vt 0.636304 0.359501
vt 0.636246 0.335490
vt 0.636246 0.339360
vt 0.629544 0.342192
vt 0.645411 0.157513
vt 0.645411 0.153644
vt 0.652113 0.150811
vt 0.629544 0.150690
vt 0.633413 0.150690
vt 0.636246 0.157392
vt 0.636294 0.128030
vt 0.636294 0.131899
vt 0.629592 0.134732
vt 0.757946 0.157934
vt 0.751243 0.157934
vt 0.751243 0.154064
vt 0.757946 0.151231
vt 0.946594 0.151231
vt 0.950464 0.151231
vt 0.953297 0.157934
vt 0.547255 0.448550
vt 0.543385 0.448550
vt 0.540552 0.441847
vt 0.953297 0.336031
vt 0.953297 0.339901
vt 0.946594 0.342734
vt 0.757946 0.336031
vt 0.757946 0.342734
vt 0.754076 0.342734
vt 0.751243 0.336031
vt 0.540543 0.045684
vt 0.540543 0.041814
vt 0.547246 0.038981
vt 0.857545 0.157934
vt 0.857545 0.154064
vt 0.864248 0.151231
vt 0.547198 0.342192
vt 0.543328 0.342192
vt 0.540495 0.335490
vt 0.540552 0.359501
vt 0.540552 0.355631
vt 0.547255 0.352798
vt 0.547246 0.134732
vt 0.543376 0.134732
vt 0.540543 0.128030
vt 0.540495 0.157392
vt 0.540495 0.153523
vt 0.547198 0.150690
vt 0.864248 0.342734
vt 0.860378 0.342734
vt 0.857545 0.336031
vn -0.1794 -0.9673 -0.1794
vn 0.1794 -0.9673 -0.1794
vn 0.1794 -0.9673 0.1794
vn -0.1794 -0.9673 0.1794
vn -0.9673 -0.1794 0.1794
vn -0.9673 0.1794 0.1794
vn -0.9673 0.1794 -0.1794
vn -0.9673 -0.1794 -0.1794
vn 0.1794 -0.1794 0.9673
vn 0.1794 0.1794 0.9673
vn -0.1794 0.1794 0.9673
vn -0.1794 -0.1794 0.9673
vn 0.1794 0.9673 -0.1794
vn -0.1794 0.9673 -0.1794
vn -0.1794 0.9673 0.1794
vn 0.1794 0.9673 0.1794
vn 0.9673 -0.1794 -0.1794
vn 0.9673 0.1794 -0.1794
vn 0.9673 0.1794 0.1794
vn 0.9673 -0.1794 0.1794
vn 0.1794 0.1794 -0.9673
vn 0.1726 0.6965 -0.6965
vn 0.5774 0.5774 -0.5773
vn 0.6965 0.1726 -0.6965
vn 0.6965 0.6965 -0.1726
vn 0.1726 -0.6965 -0.6965
vn 0.5774 -0.5774 -0.5774
vn 0.6965 -0.6965 -0.1726
vn 0.1794 -0.1794 -0.9673
vn 0.6965 -0.1726 -0.6965
vn 0.6965 0.6965 0.1726
vn 0.5774 0.5774 0.5773
vn 0.6965 0.1726 0.6965
vn 0.1726 0.6965 0.6965
vn 0.6965 -0.1726 0.6965
vn 0.5774 -0.5774 0.5774
vn 0.6965 -0.6965 0.1726
vn 0.1726 -0.6965 0.6965
vn -0.1794 0.1794 -0.9673
vn -0.6965 0.1726 -0.6965
vn -0.5774 0.5774 -0.5774
vn -0.1726 0.6965 -0.6965
vn -0.6965 0.6965 -0.1726
vn -0.6965 -0.1726 -0.6965
vn -0.5774 -0.5774 -0.5774
vn -0.6965 -0.6965 -0.1726
vn -0.1794 -0.1794 -0.9673
vn -0.1726 -0.6965 -0.6965
vn -0.6965 0.1726 0.6965
vn -0.5773 0.5774 0.5774
vn -0.6965 0.6965 0.1726
vn -0.1726 0.6965 0.6965
vn -0.1726 -0.6965 0.6965
vn -0.5774 -0.5774 0.5774
vn -0.6965 -0.6965 0.1726
vn -0.6965 -0.1726 0.6965
usemtl Material
s 1
f 38/1/1 8/2/2 24/3/3 50/4/4
f 52/5/5 43/6/6 30/7/7 36/8/8
f 23/9/9 17/10/10 44/11/11 51/12/12
f 2/13/13 31/14/14 45/15/15 16/16/16
f 10/17/17 3/18/18 15/19/19 22/20/20
f 1/21/21 4/22/22 5/23/23 7/24/24
f 2/13/13 6/25/25 5/26/23 4/27/22
f 3/18/18 7/28/24 5/29/23 6/30/25
f 8/2/2 11/31/26 12/32/27 14/33/28
f 9/34/29 13/35/30 12/36/27 11/37/26
f 10/17/17 14/38/28 12/39/27 13/40/30
f 15/19/19 18/41/31 19/42/32 21/43/33
f 16/16/16 20/44/34 19/45/32 18/46/31
f 17/10/10 21/47/33 19/48/32 20/49/34
f 22/20/20 25/50/35 26/51/36 28/52/37
f 23/9/9 27/53/38 26/54/36 25/55/35
f 24/3/3 28/56/37 26/57/36 27/58/38
f 29/59/39 32/60/40 33/61/41 35/62/42
f 30/7/7 34/63/43 33/64/41 32/65/40
f 31/14/14 35/66/42 33/67/41 34/68/43
f 36/8/8 39/69/44 40/70/45 42/71/46
f 37/72/47 41/73/48 40/74/45 39/75/44
f 38/1/1 42/76/46 40/77/45 41/78/48
f 43/6/6 46/79/49 47/80/50 49/81/51
f 44/11/11 48/82/52 47/83/50 46/84/49
f 45/15/15 49/85/51 47/86/50 48/87/52
f 50/4/4 53/88/53 54/89/54 56/90/55
f 51/12/12 55/91/56 54/92/54 53/93/53
f 52/5/5 56/94/55 54/95/54 55/96/56
f 38/1/1 50/4/4 56/90/55 42/76/46
f 42/71/46 56/94/55 52/5/5 36/8/8
f 8/2/2 38/1/1 41/78/48 11/31/26
f 11/37/26 41/73/48 37/72/47 9/34/29
f 3/18/18 10/17/17 13/40/30 7/28/24
f 7/24/24 13/35/30 9/34/29 1/21/21
f 51/12/12 44/11/11 46/84/49 55/91/56
f 55/96/56 46/79/49 43/6/6 52/5/5
f 17/10/10 23/9/9 25/55/35 21/47/33
f 21/43/33 25/50/35 22/20/20 15/19/19
f 29/59/39 37/72/47 39/75/44 32/60/40
f 32/65/40 39/69/44 36/8/8 30/7/7
f 16/16/16 45/15/15 48/87/52 20/44/34
f 20/49/34 48/82/52 44/11/11 17/10/10
f 2/13/13 16/16/16 18/46/31 6/25/25
f 6/30/25 18/41/31 15/19/19 3/18/18
f 50/4/4 24/3/3 27/58/38 53/88/53
f 53/93/53 27/53/38 23/9/9 51/12/12
f 45/15/15 31/14/14 34/68/43 49/85/51
f 49/81/51 34/63/43 30/7/7 43/6/6
f 31/14/14 2/13/13 4/27/22 35/66/42
f 35/62/42 4/22/22 1/21/21 29/59/39
f 24/3/3 8/2/2 14/33/28 28/56/37
f 28/52/37 14/38/28 10/17/17 22/20/20
f 37/72/47 29/59/39 1/21/21 9/34/29
